<svg width="14" height="14" viewBox="0 0 14 14" fill="none" xmlns="http://www.w3.org/2000/svg">
<path fill-rule="evenodd" clip-rule="evenodd" d="M9.48927 0.0449846C8.62299 0.210202 7.97098 0.597488 7.27717 1.35895L6.94014 1.72883L6.61715 1.37744C5.83154 0.522756 4.97345 0.130703 3.88762 0.130432C2.841 0.130162 1.94496 0.534619 1.2003 1.34337C0.873678 1.6981 0.64732 2.03276 0.453693 2.44712C0.133041 3.13334 0.00148621 3.72586 1.61565e-05 4.4906C-0.00109388 5.06264 0.0548582 5.45311 0.210354 5.9587C0.338668 6.37583 0.433172 6.58816 0.671201 6.99424C0.835967 7.27526 1.20609 7.70578 3.80112 10.6346C6.02453 13.144 6.76802 13.9636 6.84167 13.9866C6.89928 14.0045 6.97908 14.0045 7.03668 13.9866C7.11036 13.9636 7.87149 13.1241 10.1523 10.5501C13.4022 6.8823 13.3489 6.94783 13.6273 6.27828C13.8941 5.63664 13.9991 5.10462 14 4.3892C14.0012 3.45789 13.7893 2.66798 13.3311 1.89627C12.7609 0.935731 11.7988 0.246673 10.7515 0.0486013C10.4168 -0.0147071 9.81127 -0.016431 9.48927 0.0449846Z" fill="white"/>
</svg>
