<svg width="15" height="15" viewBox="0 0 15 15" fill="none" xmlns="http://www.w3.org/2000/svg">
<g opacity="0.8">
<path d="M7.5 0C3.35813 0 0 3.35813 0 7.5C0 8.90701 0.395213 10.2188 1.06934 11.344L0.0671387 15L3.80127 14.0198C4.89335 14.6407 6.15406 15 7.5 15C11.6419 15 15 11.6419 15 7.5C15 3.35813 11.6419 0 7.5 0ZM4.93286 4.00146C5.05474 4.00146 5.17996 4.00072 5.28809 4.00635C5.42184 4.00947 5.56741 4.01927 5.70679 4.32739C5.87241 4.69364 6.23305 5.61244 6.2793 5.70557C6.32555 5.79869 6.35832 5.9084 6.29394 6.03027C6.23269 6.15527 6.20084 6.23093 6.11084 6.34155C6.01771 6.44905 5.91567 6.58257 5.8313 6.66382C5.73817 6.75694 5.64201 6.85905 5.74951 7.04468C5.85701 7.2303 6.23035 7.83883 6.78223 8.33008C7.4916 8.96383 8.09012 9.15858 8.27637 9.25171C8.46262 9.34483 8.57048 9.33032 8.67798 9.20532C8.7886 9.08345 9.14258 8.66525 9.26758 8.479C9.38945 8.29275 9.51387 8.32498 9.68262 8.38623C9.85387 8.44748 10.7671 8.89735 10.9534 8.99048C11.1396 9.0836 11.2617 9.1297 11.3086 9.20532C11.3567 9.28345 11.3568 9.65536 11.2024 10.0891C11.048 10.5222 10.29 10.9411 9.94995 10.9705C9.60683 11.0023 9.2866 11.1247 7.71973 10.5078C5.82973 9.76344 4.6378 7.82764 4.54468 7.70264C4.45155 7.58076 3.78784 6.69619 3.78784 5.78369C3.78784 4.86807 4.26791 4.41965 4.43604 4.2334C4.60729 4.04715 4.80786 4.00146 4.93286 4.00146Z" fill="white"/>
<path d="M6.16235 4.12133L6.16237 4.12137C6.25005 4.31526 6.38563 4.64663 6.50104 4.93071C6.52152 4.98111 6.5414 5.03013 6.56042 5.07702C6.59604 5.16486 6.62864 5.24523 6.65645 5.31326C6.67773 5.36532 6.6955 5.40844 6.70913 5.44084C6.71853 5.4632 6.72395 5.47563 6.72633 5.48109C6.72804 5.48499 6.72818 5.48532 6.72711 5.48316C6.79923 5.62838 6.91098 5.92415 6.74039 6.25549C6.73502 6.2665 6.72962 6.27771 6.72412 6.28913C6.67448 6.3921 6.61663 6.51213 6.4987 6.6571L6.49382 6.66309L6.48876 6.66893C6.47414 6.68581 6.45357 6.71062 6.4293 6.7399C6.38303 6.79572 6.32332 6.86777 6.26575 6.93194C6.41818 7.17378 6.71733 7.60291 7.11467 7.95661L7.11535 7.95721C7.64103 8.42685 8.07359 8.61564 8.34317 8.7333C8.36436 8.74255 8.38453 8.75135 8.40366 8.75982C8.54714 8.59277 8.76888 8.32423 8.85124 8.20212C8.96648 8.02736 9.14442 7.87181 9.40175 7.84292C9.59409 7.82134 9.76841 7.88518 9.84309 7.91254C9.8467 7.91386 9.85008 7.91509 9.85321 7.91623L9.68262 8.38623M6.16235 4.12133L9.94995 10.9705M6.16235 4.12133C6.06871 3.91431 5.94041 3.73385 5.74822 3.62117C5.56237 3.5122 5.38079 3.50825 5.30659 3.50664C5.3065 3.50663 5.3064 3.50663 5.30631 3.50663C5.19727 3.50125 5.07591 3.50136 4.9711 3.50144C4.95808 3.50145 4.94531 3.50146 4.93286 3.50146C4.69433 3.50146 4.35038 3.58783 4.06797 3.89498L4.06796 3.89496L4.06488 3.89837C4.05385 3.91059 4.04091 3.92449 4.02636 3.94013C3.81966 4.16224 3.28784 4.73373 3.28784 5.78369C3.28784 6.35223 3.49156 6.88324 3.68533 7.26564C3.87748 7.64488 4.08141 7.91955 4.14283 8.00024M6.16235 4.12133L4.54468 7.70264M9.68262 8.38623L9.851 7.91544C9.9686 7.9575 10.2716 8.10152 10.5297 8.22611C10.8047 8.35885 11.0817 8.49562 11.177 8.54327C11.1982 8.55388 11.2246 8.56666 11.2528 8.58034C11.311 8.60859 11.3773 8.64071 11.4231 8.66574C11.492 8.70342 11.6367 8.78561 11.7336 8.9419L11.7343 8.94308C11.8135 9.07162 11.8274 9.21482 11.8323 9.2741C11.8395 9.36076 11.838 9.45682 11.8297 9.55597C11.8128 9.75539 11.7652 9.99902 11.6734 10.2568L11.6734 10.257C11.5386 10.635 11.191 10.9241 10.9173 11.101C10.6383 11.2815 10.2832 11.4429 9.99501 11.4684M9.68262 8.38623C9.85387 8.44748 10.7671 8.89735 10.9534 8.99048C10.9898 9.00871 11.0238 9.02514 11.0553 9.04035C11.1845 9.10279 11.2709 9.1445 11.3086 9.20532M9.68262 8.38623C9.51387 8.32498 9.38945 8.29275 9.26758 8.479C9.14258 8.66525 8.7886 9.08345 8.67798 9.20532H11.3086M9.99501 11.4684C9.99433 11.4685 9.99366 11.4685 9.99299 11.4686L9.94995 10.9705M9.99501 11.4684C9.99541 11.4684 9.9958 11.4684 9.9962 11.4683L9.94995 10.9705M9.99501 11.4684C9.97299 11.4705 9.94813 11.4735 9.92027 11.4769C9.77685 11.4944 9.55377 11.5215 9.22762 11.478C8.85089 11.4278 8.33609 11.2878 7.53656 10.9731L7.5365 10.973C6.49328 10.5622 5.66242 9.83249 5.09061 9.21171C4.80219 8.89858 4.57358 8.60647 4.41096 8.38451C4.32952 8.27336 4.26455 8.17969 4.21709 8.11002C4.19792 8.08189 4.1814 8.05734 4.1685 8.03818C4.16558 8.03384 4.16284 8.02978 4.1603 8.02602C4.14877 8.00891 4.14393 8.00188 4.14283 8.00024M9.94995 10.9705C9.91733 10.9735 9.88492 10.9773 9.85163 10.9813C9.53468 11.0189 9.13766 11.066 7.71973 10.5078C5.97023 9.81877 4.81887 8.10886 4.5835 7.7593C4.5646 7.73123 4.5516 7.71193 4.54468 7.70264M4.14283 8.00024C4.14445 8.00237 4.14597 8.00436 4.14738 8.00621L4.54468 7.70264M4.14283 8.00024C4.14265 7.99998 4.14257 7.99985 4.14258 7.99985C4.14259 7.99984 4.14302 8.00041 4.14372 8.00135L4.54468 7.70264M11.3086 9.20532C11.3567 9.28345 11.3568 9.65536 11.2024 10.0891L11.3086 9.20532ZM1.55155 11.4762L1.608 11.2702L1.49825 11.087C0.868166 10.0353 0.5 8.81179 0.5 7.5C0.5 3.63427 3.63427 0.5 7.5 0.5C11.3657 0.5 14.5 3.63427 14.5 7.5C14.5 11.3657 11.3657 14.5 7.5 14.5C6.24434 14.5 5.06837 14.165 4.04839 13.5851L3.87133 13.4844L3.67432 13.5362L0.778477 14.2963L1.55155 11.4762Z" stroke="white" stroke-opacity="0.3"/>
</g>
</svg>
