<svg width="169" height="41" viewBox="0 0 169 41" fill="none" xmlns="http://www.w3.org/2000/svg">
<path d="M145.791 19.7435H142.621V13.228H136.44V19.7435H133.27V4.55566H136.44V10.7079H142.621V4.55566H145.791V19.7435Z" fill="white"/>
<path d="M127.396 16.6244H121.839L120.783 19.7435H117.414L123.138 4.55566H126.076L131.835 19.7435H128.464L127.396 16.6244ZM122.694 14.0827H126.542L124.609 8.39335L122.694 14.0827Z" fill="white"/>
<path d="M115.189 7.09782H108.319V10.024H110.793C112.603 10.024 114.038 10.4582 115.098 11.3239C116.159 12.1887 116.689 13.3566 116.689 14.8265C116.689 16.3003 116.163 17.4862 115.109 18.3801C114.056 19.2736 112.658 19.7294 110.909 19.7435H105.121V4.55566H115.189V7.09782H115.189ZM108.319 12.545V17.2229H110.847C111.655 17.2229 112.3 17.0018 112.784 16.5641C113.267 16.1264 113.508 15.5385 113.508 14.8018C113.508 14.1109 113.278 13.5666 112.816 13.1672C112.354 12.7652 111.723 12.5587 110.919 12.5446H108.319V12.545Z" fill="white"/>
<path d="M88.8739 7.09782H84.1611V19.7435H80.9912V7.09782H76.3428V4.55566H88.8739V7.09782Z" fill="white"/>
<path d="M63.8121 19.7435V4.55566H69.2C71.0679 4.55566 72.4853 4.90838 73.4479 5.61693C74.4141 6.32149 74.8981 7.35763 74.8981 8.72097C74.8981 9.46516 74.7035 10.1239 74.3137 10.6898C73.9277 11.2561 73.3899 11.6722 72.6981 11.9356C73.4878 12.1311 74.1083 12.5226 74.5626 13.1144C75.0168 13.7053 75.2443 14.428 75.2443 15.2822C75.2443 16.742 74.7718 17.8455 73.8306 18.5968C72.8861 19.348 71.5409 19.7289 69.7956 19.743H63.813L63.8121 19.7435ZM66.9823 10.921H69.3298C70.9275 10.8928 71.7277 10.2657 71.7277 9.0345C71.7277 8.34712 71.5258 7.85259 71.1184 7.54962C70.714 7.24711 70.0754 7.09739 69.1996 7.09739H66.9818V10.921H66.9823ZM66.9823 13.1426V17.2229H69.6979C70.4442 17.2229 71.0287 17.0481 71.4468 16.6997C71.865 16.3505 72.0742 15.8666 72.0742 15.2505C72.0742 13.8656 71.3457 13.1641 69.8891 13.143H66.9823V13.1426Z" fill="white"/>
<path d="M57.9412 16.6244H52.3838L51.3278 19.7435H47.9595L53.6824 4.55566H56.6216L62.3807 19.7435H59.0089L57.9417 16.6244H57.9412ZM53.2387 14.0827H57.0868L55.1541 8.39335L53.2387 14.0827Z" fill="white"/>
<path fill-rule="evenodd" clip-rule="evenodd" d="M96.1247 4.92041C100.53 4.92041 104.101 8.48199 104.101 12.8754C104.101 17.2688 100.53 20.8304 96.1247 20.8304C91.7197 20.8304 88.1488 17.2688 88.1488 12.8754C88.1488 8.48199 91.7197 4.92041 96.1247 4.92041ZM96.1247 7.61186C99.039 7.61186 101.402 9.96863 101.402 12.8754C101.402 15.7822 99.039 18.1389 96.1247 18.1389C93.2101 18.1389 90.8473 15.7822 90.8473 12.8754C90.8473 9.96863 93.2101 7.61186 96.1247 7.61186Z" fill="white"/>
<path d="M40.2816 0H0V40.1757H40.2816V0Z" fill="#FFFF00"/>
<path d="M13.9215 23.8955H8.36412L7.308 27.0144H3.9397L9.66261 11.8267H12.6018L18.3609 27.0144H14.9891L13.9219 23.8955H13.9215ZM9.21889 21.3537H13.0671L11.1342 15.6644L9.21889 21.3537Z" fill="black"/>
<path d="M32.9571 14.3688H26.087V17.295H28.5608C30.3712 17.295 31.8065 17.7292 32.8664 18.5949C33.9266 19.4597 34.4573 20.6276 34.4573 22.0975C34.4573 23.5713 33.9311 24.7571 32.8776 25.6512C31.8246 26.5445 30.4258 27.0003 28.6771 27.0144H22.8893V11.8267H32.9576V14.3688H32.9571ZM26.087 19.816V24.4938H28.6152C29.4232 24.4938 30.0681 24.2729 30.5516 23.8351C31.0346 23.3973 31.2767 22.8094 31.2767 22.0728C31.2767 21.3819 31.0458 20.8376 30.5838 20.4382C30.1225 20.0362 29.4912 19.8297 28.6871 19.8156H26.087V19.816Z" fill="black"/>
<path d="M18.1036 17.0415V14.8816H15.9486V13.9775H18.1036V11.8286H19.0207V13.9775H21.1753V14.8816H19.0207V17.0415H18.1036Z" fill="black"/>
<path d="M34.4577 7.08057H3.9397V9.09916H34.4577V7.08057Z" fill="black"/>
<path d="M34.4577 30.1772H3.9397V32.1958H34.4577V30.1772Z" fill="black"/>
<path d="M55.7298 31.8089C55.7298 32.6451 55.5802 33.3783 55.2812 34.0085C54.9823 34.6386 54.5536 35.1249 53.995 35.467C53.4405 35.8094 52.8031 35.9806 52.0832 35.9806C51.3714 35.9806 50.736 35.8114 50.1774 35.4729C49.6188 35.1344 49.1863 34.6522 48.8793 34.0261C48.5726 33.3958 48.4173 32.6724 48.4132 31.8556V31.4356C48.4132 30.5992 48.5646 29.8641 48.8677 29.23C49.1744 28.5922 49.6051 28.1041 50.1598 27.7656C50.7185 27.4233 51.3556 27.2522 52.0716 27.2522C52.7873 27.2522 53.4227 27.4233 53.9774 27.7656C54.5358 28.1041 54.9665 28.5922 55.2696 29.23C55.5763 29.8641 55.7298 30.5973 55.7298 31.4296V31.8089ZM53.9361 31.4237C53.9361 30.5331 53.7748 29.8564 53.4521 29.3933C53.1297 28.9305 52.6695 28.699 52.0716 28.699C51.4776 28.699 51.0192 28.9286 50.6968 29.3876C50.3741 29.8427 50.211 30.5117 50.2069 31.3946V31.8089C50.2069 32.6763 50.3684 33.3491 50.6908 33.8277C51.0133 34.306 51.4776 34.5452 52.0832 34.5452C52.6773 34.5452 53.1336 34.3158 53.4521 33.8568C53.7707 33.394 53.9322 32.7209 53.9361 31.838V31.4237Z" fill="#FFFF00"/>
<path d="M56.6501 32.7542C56.6501 31.739 56.8587 30.9317 57.2757 30.3327C57.6966 29.7338 58.2748 29.4343 59.0104 29.4343C59.2975 29.4343 59.559 29.4906 59.7951 29.6035V26.9021H61.5002V29.6092C61.7441 29.4926 62.0136 29.4343 62.3087 29.4343C63.0482 29.4343 63.6264 29.7338 64.0434 30.3327C64.4643 30.9278 64.6747 31.7759 64.6747 32.8767C64.6747 33.8295 64.4643 34.5862 64.0434 35.1463C63.6225 35.7025 63.0482 35.9806 62.3205 35.9806C62.0175 35.9806 61.7441 35.926 61.5002 35.8171V38.291H59.7951V35.823C59.559 35.928 59.2936 35.9806 58.9986 35.9806C58.3102 35.9806 57.7576 35.7258 57.3405 35.2162C56.9235 34.7067 56.6954 34.0085 56.6561 33.1216L56.6501 32.7542ZM62.9637 32.7542C62.9637 32.1239 62.8673 31.6417 62.6745 31.3071C62.4818 30.9686 62.2102 30.7996 61.8601 30.7996C61.7501 30.7996 61.6302 30.813 61.5002 30.8404V34.5919C61.6105 34.6153 61.7343 34.627 61.872 34.627C62.5407 34.627 62.9027 34.1252 62.9577 33.1216L62.9637 32.7542ZM58.3554 32.8767C58.3554 34.0395 58.7154 34.621 59.4352 34.621C59.5846 34.621 59.7047 34.6115 59.7951 34.5919V30.8404C59.6652 30.813 59.5492 30.7996 59.4471 30.7996C59.097 30.7996 58.8275 30.9647 58.6386 31.2955C58.4498 31.6221 58.3554 32.1492 58.3554 32.8767Z" fill="#FFFF00"/>
<path d="M69.578 29.551H71.2831V35.8639H69.578V31.9666L67.442 35.8639H65.731V29.551H67.442V33.4426L69.578 29.551Z" fill="#FFFF00"/>
<path d="M72.5872 29.551H74.2925V34.5045H76.4282V29.551H78.1395V34.5161H79.0953L78.9772 37.7369H77.3902V35.8639H72.5872V29.551Z" fill="#FFFF00"/>
<path d="M83.7977 29.551H85.503V35.8639H83.7977V31.9666L81.6619 35.8639H79.9507V29.551H81.6619V33.4426L83.7977 29.551Z" fill="#FFFF00"/>
<path d="M90.5066 35.8638C90.4278 35.7121 90.3709 35.5235 90.3355 35.298C89.9224 35.7531 89.3855 35.9807 88.7245 35.9807C88.0992 35.9807 87.5799 35.8016 87.167 35.4438C86.7577 35.0859 86.5533 34.6347 86.5533 34.0901C86.5533 33.4211 86.8032 32.9077 87.3027 32.5499C87.8062 32.192 88.5318 32.0112 89.4798 32.0073H90.2647V31.6456C90.2647 31.3538 90.188 31.1203 90.0345 30.9454C89.8852 30.7705 89.647 30.6828 89.3206 30.6828C89.0335 30.6828 88.8072 30.7509 88.6421 30.8871C88.4809 31.0233 88.4 31.2099 88.4 31.4472H86.6949C86.6949 31.0816 86.8089 30.7431 87.037 30.432C87.2652 30.1208 87.5879 29.8778 88.0047 29.7026C88.4217 29.5238 88.8899 29.4343 89.409 29.4343C90.1958 29.4343 90.8192 29.6307 91.2794 30.0236C91.7437 30.4126 91.9757 30.9609 91.9757 31.6688V34.4053C91.9796 35.0042 92.0643 35.4575 92.2295 35.7647V35.8638H90.5066ZM89.0963 34.6912C89.348 34.6912 89.5803 34.6368 89.7927 34.5277C90.0051 34.4149 90.1624 34.2653 90.2647 34.0785V32.9934H89.6273C88.7739 32.9934 88.3194 33.2851 88.2644 33.8685L88.2584 33.9676C88.2584 34.1778 88.3333 34.3507 88.4827 34.4869C88.6323 34.6231 88.8367 34.6912 89.0963 34.6912Z" fill="#FFFF00"/>
<path d="M98.8379 29.551V35.8639H97.1328V30.9163H95.6282L95.5218 32.865C95.4551 33.9036 95.2485 34.6601 94.9025 35.1345C94.5562 35.6092 94.041 35.8523 93.3566 35.8639H92.7783L92.7605 34.4929L92.9729 34.4754C93.2798 34.4519 93.5041 34.2731 93.6457 33.9385C93.7873 33.6041 93.8757 33.0342 93.9111 32.229L94.0291 29.551H98.8379Z" fill="#FFFF00"/>
<path d="M101.977 31.4006H103.198C103.749 31.4006 104.233 31.4919 104.65 31.6748C105.067 31.8575 105.385 32.1201 105.606 32.4625C105.83 32.801 105.942 33.1957 105.942 33.6469C105.942 34.312 105.692 34.8487 105.193 35.2571C104.697 35.6616 104.02 35.8639 103.163 35.8639H100.266V29.551H101.977V31.4006ZM101.977 32.7543V34.5161H103.186C103.525 34.5161 103.784 34.4385 103.965 34.2829C104.146 34.1273 104.237 33.9152 104.237 33.6469C104.237 33.3745 104.148 33.1588 103.971 32.9991C103.794 32.8358 103.533 32.7543 103.186 32.7543H101.977Z" fill="#FFFF00"/>
<path d="M112.438 35.8639H110.727V33.4369H108.609V35.8639H106.904V29.551H108.609V32.0832H110.727V29.551H112.438V35.8639Z" fill="#FFFF00"/>
<path d="M115.583 31.4006H116.805C117.355 31.4006 117.839 31.4919 118.256 31.6748C118.673 31.8575 118.992 32.1201 119.212 32.4625C119.436 32.801 119.548 33.1957 119.548 33.6469C119.548 34.312 119.298 34.8487 118.799 35.2571C118.303 35.6616 117.627 35.8639 116.769 35.8639H113.872V29.551H115.583V31.4006ZM122.262 35.8639H120.557V29.551H122.262V35.8639ZM115.583 32.7543V34.5161H116.793C117.131 34.5161 117.391 34.4385 117.571 34.2829C117.753 34.1273 117.843 33.9152 117.843 33.6469C117.843 33.3745 117.754 33.1588 117.577 32.9991C117.4 32.8358 117.139 32.7543 116.793 32.7543H115.583Z" fill="#FFFF00"/>
<path d="M127.614 29.5509H129.319V35.8637H127.614V31.9664L125.478 35.8637H123.767V29.5509H125.478V33.4424L127.614 29.5509ZM128.617 26.9895C128.617 27.5068 128.428 27.925 128.051 28.2439C127.677 28.563 127.185 28.7224 126.576 28.7224C125.966 28.7224 125.472 28.5648 125.095 28.2498C124.721 27.9348 124.534 27.5148 124.534 26.9895H125.744C125.744 27.2346 125.816 27.4252 125.962 27.5612C126.111 27.6936 126.316 27.7596 126.576 27.7596C126.831 27.7596 127.032 27.6936 127.177 27.5612C127.323 27.4252 127.396 27.2346 127.396 26.9895H128.617Z" fill="#FFFF00"/>
<path d="M133.721 34.5045C134.106 34.1 134.368 33.6993 134.506 33.3025C134.643 32.906 134.72 32.3438 134.736 31.6165L134.783 29.551H139.48V34.5045H140.4V37.7601H138.695V35.8639H134.913V37.7601H133.172V34.5045H133.721ZM135.733 34.5045H137.78V30.9455H136.453L136.441 31.704C136.406 32.8631 136.169 33.7966 135.733 34.5045Z" fill="#FFFF00"/>
<path d="M145.008 29.551H146.713V35.8639H145.008V31.9666L142.872 35.8639H141.161V29.551H142.872V33.4426L145.008 29.551Z" fill="#FFFF00"/>
<path d="M153.57 29.551V35.8639H151.865V30.9163H150.36L150.254 32.865C150.187 33.9036 149.98 34.6601 149.634 35.1345C149.288 35.6092 148.773 35.8523 148.088 35.8639H147.51L147.492 34.4929L147.705 34.4754C148.012 34.4519 148.236 34.2731 148.377 33.9385C148.519 33.6041 148.607 33.0342 148.643 32.229L148.761 29.551H153.57Z" fill="#FFFF00"/>
<path d="M157.824 35.9807C156.888 35.9807 156.124 35.6966 155.535 35.1288C154.948 34.5609 154.655 33.8042 154.655 32.8592V32.6956C154.655 32.0617 154.779 31.4957 155.027 30.998C155.275 30.4962 155.625 30.1111 156.077 29.8427C156.534 29.5703 157.053 29.4343 157.635 29.4343C158.508 29.4343 159.195 29.7065 159.694 30.2511C160.198 30.7958 160.449 31.5677 160.449 32.5674V33.2558H156.384C156.439 33.6683 156.604 33.9988 156.88 34.2477C157.159 34.4967 157.511 34.6211 157.936 34.6211C158.593 34.6211 159.106 34.3858 159.476 33.9152L160.314 34.8429C160.058 35.2007 159.712 35.4807 159.275 35.683C158.839 35.8813 158.355 35.9807 157.824 35.9807ZM157.629 30.7996C157.291 30.7996 157.016 30.9124 156.803 31.1379C156.595 31.3636 156.461 31.6864 156.402 32.1064H158.774V31.9722C158.766 31.5989 158.664 31.311 158.467 31.1087C158.27 30.9026 157.991 30.7996 157.629 30.7996Z" fill="#FFFF00"/>
<path d="M167.17 32.7658C167.17 33.7382 166.946 34.5181 166.497 35.1053C166.053 35.6889 165.451 35.9807 164.692 35.9807C164.047 35.9807 163.526 35.7588 163.128 35.3153V38.291H161.423V29.5509H163.004L163.063 30.1694C163.476 29.6794 164.015 29.4343 164.68 29.4343C165.467 29.4343 166.079 29.722 166.515 30.2978C166.952 30.8734 167.17 31.667 167.17 32.6783V32.7658ZM165.465 32.6433C165.465 32.0558 165.359 31.6028 165.146 31.2839C164.938 30.9648 164.633 30.8053 164.232 30.8053C163.697 30.8053 163.329 31.0076 163.128 31.4121V33.9969C163.337 34.4131 163.708 34.6211 164.244 34.6211C165.058 34.6211 165.465 33.9619 165.465 32.6433Z" fill="#FFFF00"/>
</svg>
