<svg width="16" height="18" viewBox="0 0 16 18" fill="none" xmlns="http://www.w3.org/2000/svg">
<path opacity="0.8" d="M15.5363 3.84368C15.2387 2.78823 14.6494 1.95452 13.7864 1.36471C12.6971 0.618206 11.4441 0.355083 10.3623 0.193957C8.86526 -0.0277763 7.50962 -0.0588189 6.21647 0.0978726C5.00517 0.245695 4.09297 0.480731 3.26114 0.860634C1.6302 1.60566 0.651036 2.81041 0.351931 4.44088C0.206099 5.23321 0.107886 5.94867 0.0513387 6.6316C-0.0796126 8.21034 0.0394341 9.60726 0.414431 10.9022C0.7805 12.1646 1.41889 13.0663 2.3668 13.6591C2.60787 13.8098 2.91739 13.9192 3.21649 14.0242C3.38613 14.0833 3.55131 14.141 3.68673 14.2045C3.81173 14.2622 3.81173 14.2725 3.81024 14.376C3.79982 15.2733 3.81024 17.0324 3.81024 17.0324L3.81321 17.4078V18L4.6019 17.3014C4.67481 17.2334 6.35635 15.6192 6.95605 14.9688L7.03789 14.8786C7.14057 14.7603 7.14057 14.7603 7.24622 14.7589C8.05574 14.7426 8.88312 14.7116 9.70454 14.6672C10.7001 14.614 11.8533 14.5179 12.9396 14.0685C13.9337 13.6561 14.6599 13.0013 15.0959 12.1232C15.5512 11.2067 15.8206 10.2148 15.9218 9.08988C16.1003 7.11202 15.9738 5.39581 15.5363 3.84368ZM11.956 11.5349C11.706 11.9384 11.334 12.2193 10.895 12.4011C10.5736 12.5341 10.2462 12.506 9.92924 12.373C7.27599 11.257 5.19416 9.49935 3.81917 6.97159C3.53494 6.45126 3.33852 5.88362 3.11233 5.33373C3.0662 5.22138 3.06917 5.08834 3.04834 4.96417C3.06768 4.07576 3.75369 3.57465 4.44714 3.42387C4.71202 3.36474 4.94713 3.45787 5.14356 3.6456C5.6882 4.16002 6.11826 4.7587 6.44266 5.42981C6.58403 5.72398 6.52004 5.98414 6.27897 6.20292C6.22837 6.24874 6.17629 6.29013 6.12123 6.33152C5.57064 6.74247 5.49028 7.05437 5.78344 7.67375C6.28343 8.72772 7.11378 9.43579 8.18669 9.87482C8.46943 9.99012 8.7358 9.93247 8.95157 9.70482C8.98133 9.67526 9.01407 9.64569 9.0349 9.61022C9.45752 8.90954 10.0721 8.97902 10.6391 9.37813C11.0111 9.64126 11.3727 9.91916 11.7402 10.1867C12.3012 10.5962 12.2968 10.9805 11.956 11.5349ZM8.43669 4.5414C8.31169 4.5414 8.18669 4.55175 8.06318 4.57244C7.85485 4.60644 7.65991 4.46749 7.6242 4.26054C7.58997 4.05507 7.72985 3.85994 7.93818 3.82594C8.10187 3.79786 8.27003 3.78455 8.43669 3.78455C10.087 3.78455 11.4292 5.11791 11.4292 6.75725C11.4292 6.92429 11.4158 7.09133 11.3876 7.25246C11.3563 7.43723 11.1956 7.56879 11.0126 7.56879C10.9917 7.56879 10.9709 7.56732 10.9486 7.56288C10.7417 7.52888 10.6019 7.33376 10.6361 7.12828C10.6569 7.00707 10.6673 6.8829 10.6673 6.75725C10.6673 5.53624 9.66585 4.5414 8.43669 4.5414ZM10.2864 6.81195C10.2864 7.02037 10.1152 7.19037 9.90543 7.19037C9.69561 7.19037 9.52448 7.02037 9.52448 6.81195C9.52448 6.18666 9.01109 5.67667 8.38163 5.67667C8.17181 5.67667 8.00068 5.50668 8.00068 5.29825C8.00068 5.08982 8.17181 4.91982 8.38163 4.91982C9.43222 4.91982 10.2864 5.76832 10.2864 6.81195ZM12.462 7.65305C12.4218 7.82896 12.264 7.94722 12.0899 7.94722C12.0617 7.94722 12.0334 7.94426 12.0051 7.93835C11.7998 7.89105 11.6718 7.68853 11.7179 7.48454C11.773 7.24359 11.8012 6.99377 11.8012 6.74247C11.8012 4.90356 10.2938 3.40613 8.44264 3.40613C8.18967 3.40613 7.93818 3.43421 7.69563 3.48891C7.49027 3.53621 7.2864 3.40761 7.24027 3.20361C7.19265 2.99962 7.32212 2.7971 7.52747 2.75128C7.82509 2.68328 8.13312 2.64928 8.44264 2.64928C10.7149 2.64928 12.5631 4.48523 12.5631 6.74247C12.5631 7.04994 12.5289 7.35593 12.462 7.65305Z" fill="white"/>
</svg>
